<svg xmlns="http://www.w3.org/2000/svg" xml:space="preserve" x="0" y="0" version="1.1" viewBox="0 16.8 437.59 403.9"><path d="M362 225.2c-32.5-7.5-48.1-45.4-38.5-87.2 7.5-32.5 45-90.3 86.7-121.2 24 46 32.2 114.4 24.7 147-9.6 41.7-40.3 69-72.9 61.4z" fill="#77bc1f"/><path d="M410.2 16.8c24 46 32.2 114.4 24.7 147-9.6 41.7-40.3 69-72.9 61.4l48.2-208.4z" fill="#218649" opacity=".2"/><path d="M420.3 94.5a7.5 7.5 0 0 0-10.4-2.3L399 99l7.6-33a7.5 7.5 0 1 0-14.6-3.4l-7.6 33-7-11a7.5 7.5 0 1 0-12.7 7.9l14.9 23.8-8.3 35.8-10.8-17.2a7.5 7.5 0 1 0-12.7 8l18.7 30-6.5 28.3a7.5 7.5 0 1 0 14.6 3.4l6.5-28.4 30-18.8a7.5 7.5 0 1 0-7.9-12.7l-17.3 10.8 8.3-35.9L418 105a7.5 7.5 0 0 0 2.4-10.4z" fill="#00953a"/><circle fill="#ff9500" cx="222.8" cy="233.7" r="187"/><path d="M189 243.7H76.6a13 13 0 0 0-12.9 14.8 160 160 0 0 0 29.5 70.8 13 13 0 0 0 18.7 1.4l80-80.1a4 4 0 0 0-2.9-7zm24 23.8V380a13 13 0 0 1-14.9 13 160.8 160.8 0 0 1-70.8-29.6 13 13 0 0 1-1.4-18.6l80.1-80.1a4 4 0 0 1 7 3zm43.7-23.8H369a13 13 0 0 1 13 14.8 161.3 161.3 0 0 1-29.6 70.8 13 13 0 0 1-18.6 1.4l-80.1-80.1a4 4 0 0 1 3-7zm-24 23.8V380a13 13 0 0 0 14.9 13 161.3 161.3 0 0 0 70.8-29.6 13 13 0 0 0 1.4-18.6l-80.2-80.1a4 4 0 0 0-6.9 3zM189 223.8H76.6A13 13 0 0 1 63.7 209c4-26.2 14.4-50.4 29.5-70.8a13 13 0 0 1 18.7-1.4l80 80.1a4 4 0 0 1-3 6.9zm24-23.8V87.6a13 13 0 0 0-14.9-13 160.8 160.8 0 0 0-70.8 29.6 13 13 0 0 0-1.4 18.6L206 203a4 4 0 0 0 6.9-3zm43.7 23.8H369a13 13 0 0 0 13-14.8 160.8 160.8 0 0 0-29.6-70.8 13 13 0 0 0-18.6-1.4L253.7 217a4 4 0 0 0 3 6.9zm-24-23.8V87.6a13 13 0 0 1 14.9-13 161.3 161.3 0 0 1 70.8 29.6 13 13 0 0 1 1.4 18.6L239.6 203a4 4 0 0 1-6.9-3z" fill="#ffc843"/><path d="M303.7 194.6c-4.1 2.2-13.7 11.8-11.4 15.9 2.2 4.1 15.4 1.2 19.6-1a8.5 8.5 0 0 0-8.2-15zm-56.6-42.3c-1.6 4.4-2.5 17.9 2 19.5 4.4 1.6 12.4-9.3 14-13.7a8.5 8.5 0 0 0-16-5.8zm-98.1 122c4-2.3 13.6-11.8 11.4-16-2.2-4-15.5-1.2-19.6 1a8.5 8.5 0 1 0 8.2 15z" fill="#fff"/><path d="M222.8 46.7a187 187 0 1 0 0 374v-374z" fill="#222" opacity=".2"/><path d="M151.2 402.5c23.7-23.6 16.8-64-13.5-94.4-23.6-23.6-86-52.8-137.7-56.9C4 303 33.2 365.3 56.9 389c30.3 30.3 70.7 37.1 94.3 13.5z" fill="#77bc1f"/><path d="M0 251.2C4 303 33.2 365.3 56.9 389c30.3 30.3 70.7 37.1 94.3 13.5L0 251.2z" fill="#218649" opacity=".2"/><path d="m140.4 381-20.6-20.6v-35.3a7.5 7.5 0 1 0-15 0v20.3l-26-26v-28a7.5 7.5 0 0 0-15 0v13l-24-24a7.5 7.5 0 0 0-10.6 10.7l24 24h-13a7.5 7.5 0 1 0 0 15h28l26 26H73.8a7.5 7.5 0 1 0 0 15h35.4l20.6 20.6a7.5 7.5 0 0 0 10.6 0c3-3 3-7.7 0-10.7z" fill="#00953a"/></svg>